<?xml version="1.0" encoding="UTF-8"?>
<svg id="Layer_1" xmlns="http://www.w3.org/2000/svg" version="1.1" viewBox="0 0 200 200">
  <!-- Generator: Adobe Illustrator 29.1.0, SVG Export Plug-In . SVG Version: 2.1.0 Build 142)  -->
  <g>
    <path d="M136.2,190.4H63.8c-9.8,0-17.7-7.9-17.7-17.7V27.3c0-9.8,7.9-17.7,17.7-17.7h72.4c9.8,0,17.7,7.9,17.7,17.7v145.4c0,9.8-7.9,17.7-17.7,17.7ZM63.8,19.7c-4.2,0-7.6,3.4-7.6,7.6v145.4c0,4.2,3.4,7.6,7.6,7.6h72.4c4.2,0,7.6-3.4,7.6-7.6V27.3c0-4.2-3.4-7.6-7.6-7.6,0,0-72.4,0-72.4,0Z"/>
    <path d="M100,166.2c-16.3,0-29.6-13.3-29.6-29.6s13.3-29.6,29.6-29.6,29.6,13.3,29.6,29.6-13.3,29.6-29.6,29.6ZM100,117c-10.8,0-19.5,8.8-19.5,19.5s8.8,19.5,19.5,19.5,19.5-8.8,19.5-19.5-8.8-19.5-19.5-19.5Z"/>
    <circle cx="100" cy="136.5" r="6.2"/>
    <path d="M100,93.1c-16.3,0-29.6-13.3-29.6-29.6s13.3-29.6,29.6-29.6,29.6,13.3,29.6,29.6-13.3,29.6-29.6,29.6ZM100,44c-10.8,0-19.5,8.8-19.5,19.5s8.8,19.5,19.5,19.5,19.5-8.8,19.5-19.5-8.8-19.5-19.5-19.5Z"/>
    <circle cx="100" cy="63.5" r="6.2"/>
  </g>
  <path d="M15.9,127.4c-1.5,0-3-.7-3.9-2-2.3-3.4-4.2-7.3-5.5-11.6-1.3-4.4-2-9-2-13.7s.7-9.4,2-13.7c1.3-4.3,3.2-8.2,5.5-11.6,1.5-2.1,4.4-2.7,6.5-1.2s2.7,4.4,1.2,6.5c-1.8,2.6-3.3,5.7-4.2,8.9-1,3.5-1.6,7.2-1.6,11.1s.6,7.5,1.6,11.1c1,3.3,2.4,6.3,4.2,8.9,1.5,2.1.9,5-1.2,6.5-.8.6-1.8.8-2.7.8v.2Z"/>
  <path d="M184.2,127.4c-.9,0-1.9-.3-2.7-.8-2.1-1.5-2.7-4.4-1.2-6.5,1.8-2.6,3.3-5.7,4.3-8.9,1-3.5,1.6-7.2,1.6-11.1s-.6-7.5-1.6-11.1c-1-3.3-2.4-6.3-4.2-8.9-1.5-2.1-.9-5,1.2-6.5s5-.9,6.5,1.2c2.3,3.4,4.2,7.3,5.5,11.6,1.3,4.4,2,9,2,13.7s-.7,9.4-2,13.7c-1.3,4.3-3.2,8.2-5.5,11.6-.9,1.3-2.4,2-3.9,2v-.2Z"/>
  <path d="M31.6,118.2c-1.6,0-3.2-.8-4.1-2.3-3.2-4.7-4.8-10.3-4.8-15.9s1.7-11.1,4.8-15.9c1.5-2.3,4.6-3,6.9-1.4,2.3,1.5,3,4.6,1.4,6.9-2.1,3.2-3.2,6.7-3.2,10.5s1.1,7.3,3.2,10.5c1.5,2.3.9,5.4-1.4,6.9-.9.6-1.8.8-2.8.8h0Z"/>
  <path d="M168.4,118.2c-1,0-1.9-.3-2.8-.8-2.3-1.5-3-4.6-1.4-6.9,2.1-3.2,3.2-6.7,3.2-10.5s-1.1-7.3-3.2-10.5c-1.5-2.3-.9-5.4,1.4-6.9,2.3-1.5,5.4-.9,6.9,1.4,3.2,4.7,4.8,10.3,4.8,15.9s-1.7,11.1-4.8,15.9c-1,1.5-2.6,2.3-4.1,2.3h0Z"/>
</svg>