<?xml version="1.0" encoding="UTF-8"?>
<svg id="Layer_1" xmlns="http://www.w3.org/2000/svg" version="1.1" viewBox="0 0 200 200">
  <!-- Generator: Adobe Illustrator 29.1.0, SVG Export Plug-In . SVG Version: 2.1.0 Build 142)  -->
  <path d="M187.6,154.6V54.8c0-3.2-2.6-5.9-5.9-5.9h-25.3c-3.2,0-5.9,2.6-5.9,5.9v98.6h-8.8v-63.7c0-3.2-2.6-5.9-5.9-5.9h-25.3c-3.2,0-5.9,2.6-5.9,5.9v63.7h-8.3v-82c0-3.2-2.6-5.9-5.9-5.9h-25.3c-3.2,0-5.9,2.6-5.9,5.9v82h-9.5v-47.9c0-3.2-2.6-5.9-5.9-5.9h-25.3c-3.2,0-5.9,2.6-5.9,5.9v48.9c-6.9,2.4-11.8,8.9-11.8,16.6v13.5c0,3.2,2.6,5.9,5.9,5.9h185.7c3.2,0,5.9-2.6,5.9-5.9v-13.5c0-7.4-4.6-13.8-11.1-16.3ZM162.3,60.7h13.6v92.7h-13.6V60.7ZM116.6,95.5h13.6v57.9h-13.6v-57.9ZM71.3,77.3h13.6v76.1h-13.6v-76.1ZM24.8,111.4h13.6v42h-13.6v-42ZM187,178.7H13v-7.7c0-3.2,2.6-5.9,5.9-5.9h162.2c3.2,0,5.9,2.6,5.9,5.9v7.7Z"/>
  <path d="M27.3,83.5c1.3,0,2.7-.4,3.8-1.4l46.2-38.7,44.9,19.6c2,.9,4.4.5,6.1-.9l40.4-34.1v13.3c0,3.2,2.6,5.9,5.9,5.9s5.9-2.6,5.9-5.9V15.5s0,0,0,0c0-.1,0-.3,0-.4,0,0,0,0,0-.1,0-.2,0-.3,0-.5,0,0,0-.1,0-.2,0-.1,0-.2,0-.3,0,0,0-.2,0-.2,0,0,0,0,0-.1,0,0,0,0,0-.1,0,0,0-.2,0-.2,0,0,0-.2-.1-.3,0,0,0-.1,0-.2,0-.1-.2-.3-.3-.4,0,0,0,0,0-.1,0-.1-.1-.2-.2-.3,0,0,0,0-.1-.1,0,0-.2-.2-.2-.3,0,0,0,0-.1-.1-.1-.1-.2-.2-.3-.3,0,0,0,0,0,0-.1-.1-.3-.2-.4-.3,0,0-.1,0-.2,0,0,0-.2-.1-.3-.2,0,0-.1,0-.2-.1,0,0-.2,0-.3-.1,0,0-.1,0-.2,0-.1,0-.3-.1-.5-.2,0,0-.1,0-.2,0-.1,0-.2,0-.3,0,0,0-.1,0-.2,0-.1,0-.2,0-.4,0,0,0-.1,0-.2,0-.2,0-.4,0-.5,0h-26.3c-3.2,0-5.9,2.6-5.9,5.9s2.6,5.9,5.9,5.9h10.3l-35.1,29.6-44.9-19.6c-2-.9-4.4-.6-6.1.9l-49,41c-2.5,2.1-2.8,5.8-.7,8.2,1.2,1.4,2.8,2.1,4.5,2.1Z"/>
</svg>