<?xml version="1.0" encoding="UTF-8"?>
<svg id="Layer_1" xmlns="http://www.w3.org/2000/svg" version="1.1" viewBox="0 0 200 200">
  <!-- Generator: Adobe Illustrator 29.1.0, SVG Export Plug-In . SVG Version: 2.1.0 Build 142)  -->
  <path d="M104.6,55c-1-1.5-2.7-2.4-4.6-2.4s-3.5.9-4.6,2.4l-42.1,62.9c-1.6,2.4-1.3,5.6.7,7.7,2.9,2.9,16.8,17.8,19.1,38.1-6,4.5-9.8,11.7-9.8,19.7v1.1c0,3.3,2.7,5.9,5.9,5.9h61.5c3.3,0,5.9-2.7,5.9-5.9v-1.1c0-8-3.9-15.2-9.8-19.7,2.3-20.3,16.2-35.2,19.1-38.1,2.1-2.1,2.4-5.3.7-7.7l-42.1-62.9ZM105.1,121.4c0,2.8-2.3,5.2-5.2,5.2s-5.2-2.3-5.2-5.2,2.3-5.2,5.2-5.2,5.2,2.3,5.2,5.2ZM74.4,179.8c1.6-6.1,7.1-10.6,13.7-10.6h23.9c6.6,0,12.1,4.5,13.7,10.6h-51.3ZM116.9,159.1c-1.6-.3-3.2-.5-4.9-.5h-23.9c-1.7,0-3.3.2-4.9.5-3.1-18.3-13.7-32.2-19.1-38.3l30.6-45.7v31.4c-6.1,2.2-10.5,8-10.5,14.8s7.1,15.7,15.8,15.7,15.7-7.1,15.7-15.7-4.4-12.7-10.5-14.8c0,0,0,0,0,0v-31.5h0s30.7,45.8,30.7,45.8c-5.4,6.1-16,20-19.1,38.3Z"/>
  <path d="M184.1,9.6h-19.3c-3.6,0-6.5,2.9-6.5,6.5v4.3h-43.6c-2.2-6-8-10.4-14.8-10.4s-12.6,4.3-14.8,10.4h-43.5v-4.3c0-3.6-2.9-6.5-6.5-6.5H15.9c-3.6,0-6.5,2.9-6.5,6.5v19.3c0,3.6,2.9,6.5,6.5,6.5h19.3c3.6,0,6.5-2.9,6.5-6.5v-4.5h21.6c-18.3,11.5-30.8,31.5-32.1,54.4-6.1,2.1-10.6,8-10.6,14.9s7.1,15.7,15.7,15.7,15.8-7.1,15.8-15.7-4.3-12.6-10.3-14.8c1.7-25.5,19.9-46.7,44-52.7,2.6,5.2,7.9,8.8,14.1,8.8s11.6-3.6,14.1-8.8c24.1,6,42.4,27.1,44.1,52.7-6.1,2.2-10.4,8-10.4,14.8s7.1,15.7,15.7,15.7,15.7-7.1,15.7-15.7-4.4-12.7-10.5-14.9c-1.3-22.9-13.8-42.8-32.1-54.4h21.7v4.5c0,3.6,2.9,6.5,6.5,6.5h19.3c3.6,0,6.5-2.9,6.5-6.5v-19.3c0-3.6-2.9-6.5-6.5-6.5ZM31.1,31.3h-11.1v-11.1h11.1v11.1ZM36.4,105.4c-2.8,0-5.2-2.3-5.2-5.2s2.3-5.2,5.2-5.2,5.2,2.3,5.2,5.2-2.3,5.2-5.2,5.2ZM163.5,105.4c-2.8,0-5.2-2.3-5.2-5.2s2.3-5.2,5.2-5.2,5.2,2.3,5.2,5.2-2.3,5.2-5.2,5.2ZM100,30.9c-2.8,0-5.2-2.3-5.2-5.2s2.3-5.2,5.2-5.2,5.2,2.3,5.2,5.2-2.3,5.2-5.2,5.2ZM180,31.3h-11.1v-11.1h11.1v11.1Z"/>
</svg>