<?xml version="1.0" encoding="UTF-8"?>
<svg id="Layer_1" xmlns="http://www.w3.org/2000/svg" version="1.1" viewBox="0 0 200 200">
  <!-- Generator: Adobe Illustrator 29.1.0, SVG Export Plug-In . SVG Version: 2.1.0 Build 142)  -->
  <path d="M26.1,156.7c-7.4,0-13.4,6-13.4,13.4s6,13.4,13.4,13.4,13.4-6,13.4-13.4-6-13.4-13.4-13.4ZM26.1,177.5c-4.1,0-7.4-3.3-7.4-7.4s3.3-7.4,7.4-7.4,7.4,3.3,7.4,7.4-3.3,7.4-7.4,7.4Z"/>
  <path d="M26.1,167.5c-1.5,0-2.6,1.2-2.6,2.6s1.2,2.6,2.6,2.6,2.6-1.2,2.6-2.6-1.2-2.6-2.6-2.6Z"/>
  <path d="M26.1,152.6c7.4,0,13.4-6,13.4-13.4s-6-13.4-13.4-13.4-13.4,6-13.4,13.4,6,13.4,13.4,13.4ZM26.1,131.7c4.1,0,7.4,3.3,7.4,7.4s-3.3,7.4-7.4,7.4-7.4-3.3-7.4-7.4,3.3-7.4,7.4-7.4Z"/>
  <path d="M26.1,141.8c1.5,0,2.6-1.2,2.6-2.6s-1.2-2.6-2.6-2.6-2.6,1.2-2.6,2.6,1.2,2.6,2.6,2.6Z"/>
  <path d="M188.9,115.6V42.9h2.7c1.7,0,3-1.3,3-3V15.1c0-1.7-1.3-3-3-3h-62.6v-2.9c0-1.7-1.3-3-3-3h-51.8c-1.7,0-3,1.3-3,3v2.9H8.5c-1.7,0-3,1.3-3,3v24.8c0,1.7,1.3,3,3,3h2.7v72.7c-5,.8-8.7,5.2-8.7,10.4v57.4c0,5.8,4.7,10.5,10.5,10.5h174.1c5.8,0,10.5-4.7,10.5-10.5v-57.4c0-5.2-3.8-9.5-8.7-10.4ZM125.6,175.2h-51.3c-1.7,0-3,1.3-3,3v9.6h-22.5c.7-1.4,1-2.9,1-4.5v-14.3h100.3v14.3c0,1.6.4,3.1,1,4.5h-22.5v-9.6c0-1.7-1.3-3-3-3ZM100,156.6h50.1v6.4H49.9v-6.4h50.1ZM99,148.5l2.1,2.1h-4.2l2.1-2.1ZM150.1,125.9v24.7h-40.4l-7.7-7.6v-29c0-.4,0-.8-.2-1.2l5-5.1c1.2-1.2,1.2-3.1,0-4.2-1.2-1.2-3.1-1.2-4.2,0l-9.2,9.3c-1.2,1.2-1.2,3.1,0,4.2.6.6,1.3.9,2.1.9s.4,0,.6,0v25.1l-7.5,7.6h-38.7v-24.7c0-4.9-3.4-9-7.9-10.2V42.9h14.1v5l-6.3.4c-1.6,0-2.8,1.4-2.8,3v8.7c0,.8.3,1.6.9,2.1l11,10.9c-1.1,1.2-1,3,.1,4.2.6.6,1.3.9,2.1.9s1.6-.3,2.1-.9l8.1-8.2,3.1-3.1s0,0,0,0l1.5-1.5c1.2-1.2,1.1-3.1,0-4.2-1-1-2.4-1.1-3.5-.5l-10.2-10.1c0,0,0-.1,0-.2v-6.3h75.9v6.3c0,0,0,.1,0,.2l-10.2,10.1c-1.1-.6-2.6-.5-3.5.5-1.2,1.2-1.2,3.1,0,4.2l1.5,1.5s0,0,0,0l9.1,9.3s0,0,0,0l2,2.1c.6.6,1.4.9,2.1.9s1.5-.3,2.1-.9c1.2-1.1,1.2-3,.1-4.2l11-10.9c.6-.6.9-1.3.9-2.1v-8.7c0-1.6-1.2-2.9-2.8-3l-6.3-.4v-5h14.1v72.9c-4.5,1.2-7.9,5.3-7.9,10.2ZM33.2,42.9l-6.6,10.6-6.6-10.6h13.2ZM36,49.8v18.6l-5.8-9.3,5.8-9.4ZM26.6,64.8l6.9,11h-13.8l6.8-11ZM33.5,81.9l-6.9,11-6.8-11h13.8ZM36,89.3v18.6l-5.8-9.4,5.8-9.3ZM23.1,59.2l-5.9,9.5v-19l5.9,9.5ZM23.1,98.5l-5.9,9.5v-19l5.9,9.5ZM26.6,104.2l7,11.2h-14l7-11.2ZM66.4,65.3l-3.4,3.4-10.1-10v-4.6l5-.3,10.1,9.9-1.5,1.6ZM136.9,68.7l-4.9-5,10.1-9.9,5,.3v4.6l-10.1,10ZM173.4,64.8l6.8,11h-13.8l6.9-11ZM164,68.4v-18.6l5.8,9.4-5.8,9.3ZM166.8,42.9h13.2l-6.6,10.6-6.6-10.6ZM164,89.3l5.8,9.3-5.8,9.4v-18.6ZM166.5,81.9h13.8l-6.8,11-6.9-11ZM182.8,89v19l-5.9-9.5,5.9-9.5ZM176.9,59.2l5.9-9.5v19l-5.9-9.5ZM173.4,104.2l7,11.2h-14l7-11.2ZM77.1,12.2h45.8v6.5h-45.8v-6.5ZM11.5,18.1h59.6v3.7c0,1.7,1.3,3,3,3h51.8c1.7,0,3-1.3,3-3v-3.7h59.6v18.8h-.8s0,0,0,0c0,0,0,0-.1,0,0,0,0,0,0,0,0,0,0,0,0,0,0,0-.1,0-.2,0,0,0,0,0-.1,0,0,0-.1,0-.2,0,0,0,0,0-.1,0,0,0,0,0-.1,0,0,0,0,0-.1,0,0,0,0,0-.1,0,0,0-.1,0-.2,0,0,0,0,0-.1,0,0,0-.1,0-.2,0,0,0,0,0,0,0h-24.8s0,0,0,0c0,0-.1,0-.2,0,0,0,0,0-.1,0,0,0-.1,0-.2,0,0,0,0,0-.1,0,0,0,0,0-.1,0,0,0,0,0-.1,0,0,0,0,0-.1,0,0,0-.1,0-.2,0,0,0,0,0-.1,0,0,0-.1,0-.2,0,0,0,0,0,0,0,0,0,0,0,0,0,0,0,0,0-.1,0,0,0,0,0,0,0H40.8s0,0,0,0c0,0,0,0-.1,0,0,0,0,0,0,0,0,0,0,0,0,0,0,0-.1,0-.2,0,0,0,0,0-.1,0,0,0-.1,0-.2,0,0,0,0,0-.1,0,0,0,0,0-.1,0,0,0,0,0-.1,0,0,0,0,0-.1,0,0,0-.1,0-.2,0,0,0,0,0-.1,0,0,0-.1,0-.2,0,0,0,0,0,0,0H14.2s0,0,0,0c0,0-.1,0-.2,0,0,0,0,0-.1,0,0,0-.1,0-.2,0,0,0,0,0-.1,0,0,0,0,0-.1,0,0,0,0,0-.1,0,0,0,0,0-.1,0,0,0-.1,0-.2,0,0,0,0,0-.1,0,0,0-.1,0-.2,0,0,0,0,0,0,0,0,0,0,0,0,0,0,0,0,0-.1,0,0,0,0,0,0,0h-.8v-18.8ZM26.7,187.8h-13.8c-2.5,0-4.5-2-4.5-4.5v-57.4c0-2.5,2-4.5,4.5-4.5h1.2s0,0,0,0,0,0,0,0h24.8s0,0,0,0,0,0,0,0h.4c2.5,0,4.5,2,4.5,4.5v57.4c0,2.5-2,4.5-4.5,4.5h-12.7ZM100,187.8h-22.6v-6.6h45.3v6.6h-22.6ZM191.6,183.3c0,2.5-2,4.5-4.5,4.5h-26.4c-2.5,0-4.5-2-4.5-4.5v-57.4c0-2.5,2-4.5,4.5-4.5h.4s0,0,0,0,0,0,0,0h24.8s0,0,0,0,0,0,0,0h1.2c2.5,0,4.5,2,4.5,4.5v57.4Z"/>
  <path d="M173.9,156.7c-7.4,0-13.4,6-13.4,13.4s6,13.4,13.4,13.4,13.4-6,13.4-13.4-6-13.4-13.4-13.4ZM173.9,177.5c-4.1,0-7.4-3.3-7.4-7.4s3.3-7.4,7.4-7.4,7.4,3.3,7.4,7.4-3.3,7.4-7.4,7.4Z"/>
  <path d="M173.9,167.5c-1.5,0-2.6,1.2-2.6,2.6s1.2,2.6,2.6,2.6,2.6-1.2,2.6-2.6-1.2-2.6-2.6-2.6Z"/>
  <path d="M173.9,125.7c-7.4,0-13.4,6-13.4,13.4s6,13.4,13.4,13.4,13.4-6,13.4-13.4-6-13.4-13.4-13.4ZM173.9,146.5c-4.1,0-7.4-3.3-7.4-7.4s3.3-7.4,7.4-7.4,7.4,3.3,7.4,7.4-3.3,7.4-7.4,7.4Z"/>
  <path d="M173.9,136.5c-1.5,0-2.6,1.2-2.6,2.6s1.2,2.6,2.6,2.6,2.6-1.2,2.6-2.6-1.2-2.6-2.6-2.6Z"/>
</svg>