<?xml version="1.0" encoding="UTF-8"?>
<svg id="Layer_1" xmlns="http://www.w3.org/2000/svg" version="1.1" viewBox="0 0 200 200">
  <!-- Generator: Adobe Illustrator 29.1.0, SVG Export Plug-In . SVG Version: 2.1.0 Build 142)  -->
  <g>
    <path d="M190.4,68h-10.6v-24.1c0-13.1-10.6-23.7-23.7-23.7h-24.1v-10.6h24.1c18.9,0,34.3,15.4,34.3,34.3v24.1Z"/>
    <path d="M68,190.4h-24.1c-18.9,0-34.3-15.4-34.3-34.3v-24.1h10.6v24.1c0,13.1,10.6,23.7,23.7,23.7h24.1v10.6Z"/>
    <path d="M20.2,68h-10.6v-24.1c0-18.9,15.4-34.3,34.3-34.3h24.1v10.6h-24.1c-13.1,0-23.7,10.6-23.7,23.7v24.1Z"/>
    <path d="M156.1,190.4h-24.1v-10.6h24.1c13.1,0,23.7-10.6,23.7-23.7v-24.1h10.6v24.1c0,18.9-15.4,34.3-34.3,34.3Z"/>
  </g>
  <path d="M77.4,141.7c-1.6,0-3.2-.4-4.7-1.3-2.9-1.7-4.7-4.7-4.7-8.1v-64.7c0-3.4,1.7-6.4,4.7-8.1,2.9-1.7,6.4-1.7,9.4,0l56,32.3c2.9,1.7,4.7,4.7,4.7,8.1,0,3.4-1.7,6.4-4.7,8.1l-56,32.3c-1.5.8-3.1,1.3-4.7,1.3ZM78.6,69.8v60.4l52.3-30.2-52.3-30.2ZM132.8,101.1s0,0,0,0h0Z"/>
</svg>