<?xml version="1.0" encoding="UTF-8"?>
<svg id="Layer_1" xmlns="http://www.w3.org/2000/svg" version="1.1" viewBox="0 0 20 20">
  <!-- Generator: Adobe Illustrator 29.1.0, SVG Export Plug-In . SVG Version: 2.1.0 Build 142)  -->
  <defs>
    <style>
      .st0 {
        fill: #fff;
      }
    </style>
  </defs>
  <rect class="st0" x="1" y="1" width="18" height="18" rx="2.4" ry="2.4"/>
  <g>
    <path d="M9.1,11c.2,0,.3-.3,0-.4-.6-.2-1.6-.5-2.1-.8-.3-.1-.4-.2-.6-.3h0s0,0,0,0c-.8-.6-1.2-1.4-1.2-2.4s0-.8.2-1.1c.4-.7,1.6-.4,1.5.5,0,0,0,.4,0,.5,0,1.4,1.4,1.9,2.6,2.1.6.2,1.2.2,1.2,1,0,0,0,.2,0,.2,0,.2.3.2.4,0,.2-.6-.2-1.3-.7-1.4-.4-.1-.8-.2-1.2-.3-1.1-.3-1.8-.8-1.8-1.7,0-2.4,4.4-2.1,6.5-1,.2,0,.3,0,.4-.1l.6-1.4c0-.1,0-.3-.1-.4-3.4-2.1-10.1-1.2-9.9,3,0,2.7,2.3,3.4,4.3,3.9Z"/>
    <path d="M15.4,13c0-1.9-1.2-2.8-2.6-3.4-.4-.1-.8-.3-1.2-.4-.2,0-.3.3,0,.4.9.2,1.5.4,2.4,1.1,1.3.9,1.3,3.2.3,4.3-.1.2-.4.3-.6.3-.6,0-.9-.7-.6-1.1.5-.7.4-1.4,0-2-.3-.5-.8-.8-1.3-.9-.6-.2-.8-.2-1.3-.3-.5-.1-.7-.4-.6-1,0-.2-.3-.2-.3,0,0,.6,0,1.1.6,1.3.1,0,.2,0,.4.1.4,0,.8.2,1.2.3.8.3,1.3.7,1.3,1.5,0,2.7-5.5,1.9-7.3.5-.1-.1-.4,0-.4.1l-.6,1.4c0,.1,0,.3,0,.3,3.1,2.5,10.9,2.1,10.8-2.6Z"/>
  </g>
</svg>