<?xml version="1.0" encoding="UTF-8"?>
<svg id="Layer_1" xmlns="http://www.w3.org/2000/svg" version="1.1" viewBox="0 0 200 48.6">
  <!-- Generator: Adobe Illustrator 29.1.0, SVG Export Plug-In . SVG Version: 2.1.0 Build 142)  -->
  <rect x="130.9" y="3.8" width="2.2" height="32.3"/>
  <rect x="138.3" y="13.4" width="2.2" height="22.7"/>
  <path d="M139.4,4.3c-1,0-1.8.8-1.8,1.8s.8,1.7,1.8,1.7,1.8-.8,1.8-1.8-.8-1.7-1.8-1.7Z"/>
  <path d="M156.9,13.2c-4.3,0-7.5,1.9-9,5.1v-4.9h-2.1v22.7h2.2v-12.1c0-5.4,3.3-8.8,8.6-8.8s7.3,2.7,7.3,7.8v13.1h2.2v-13.3c0-6.3-3.7-9.6-9.2-9.6Z"/>
  <polygon points="190.1 13.4 187.3 13.4 172.8 26.6 172.8 3.8 170.6 3.8 170.6 36.1 172.8 36.1 172.8 29.3 178.7 23.9 188.4 36.1 191.1 36.1 180.3 22.5 190.1 13.4"/>
  <path d="M196,33.4c-.8,0-1.4.6-1.4,1.4s.6,1.5,1.4,1.5,1.4-.6,1.4-1.5-.6-1.4-1.4-1.4Z"/>
  <path d="M8.8,14c0-2.3,1.9-4.1,6.6-4.1s5.7.8,8.4,2.4l1.8-4.4c-2.6-1.7-6.5-2.7-10.1-2.7C7.1,5.2,3.2,9.4,3.2,14.3c0,11.3,18.1,7,18.1,13.6s-2,4-6.7,4-7.6-1.4-10-3.3l-2,4.4c2.5,2.2,7.3,3.7,12,3.7,8.3,0,12.3-4.2,12.3-9,0-11.2-18-7-18-13.4Z"/>
  <path d="M42.5,31.9c-2.1,0-3.2-1.2-3.2-3.5v-11h6.2v-4.3h-6.2v-5.3h-5.4v5.3h-3.8v4.3h3.8v11.2c0,5.1,2.9,7.8,8,7.8s3.9-.5,5.2-1.6l-1.5-3.9c-.8.7-1.9,1-3,1Z"/>
  <path d="M80,24.1c0-.1,0-.2,0-.3,0-1.2.3-2.3.8-3.2,1.1-2.1,3.4-3.4,6.3-3.4s6.3,1.2,6.9,4.3h5.5v-8.7h-5.2v3.1c-1.9-2.3-4.8-3.3-8-3.3-5.5,0-10,3.1-11.3,8h-3.6c-.4-5.9-4.2-8-10.5-8s-7.3,1-9.8,2.9l2.1,4c1.7-1.4,4.4-2.3,7-2.3s5.6.5,5.8,3.4h-6c-7,0-9.6,5-9.6,8.9s3.3,7,8.6,7,6-1.1,7.3-3.1v2.8h5.1v-12h8.6ZM65.9,28.8c-.9,2.4-3.2,3.6-5.9,3.6s-4.4-1.3-4.4-3.2,1-5.1,4.7-5.1h5.6v4.7Z"/>
  <path d="M114.6,12.3c-5.9,0-10.5,3.6-11.7,9-.2.7-.3,1.4-.3,2.2h-8.5c0,.1,0,.2,0,.3,0,1.2-.3,2.4-.8,3.3-1.1,2.1-3.4,3.4-6.2,3.4s-6.3-1.2-6.9-4.3h-5.5c.7,5.9,5.5,8.9,11.6,8.9s5.9-1,7.8-3.1v1.2c0,4.7-2.3,7-7.4,7s-6.5-1.1-8.6-2.8l-2.4,4.1c2.6,2.2,7,3.3,11.3,3.3,8.1,0,12.5-3.8,12.5-12.3v-5.5h3.5c1.2,5.3,5.9,9,12.5,9s7.3-1.3,9.3-3.8l-2.9-3.3c-1.6,1.7-3.7,2.5-6.3,2.5s-6.1-1.7-7.2-4.4h17.9c0-.5,0-2.4,0-2.8,0-7.3-5-12-11.7-12ZM110.3,23.5h0s-2.3,0-2.3,0c0,0,0-1.2,0-1.2,0-.3.1-.7.2-1,.8-2.8,3.2-4.6,6.4-4.6s6.1,2.3,6.6,5.6c0,0,0,1.2,0,1.2h-10.9Z"/>
</svg>