<?xml version="1.0" encoding="UTF-8"?>
<svg id="Layer_1" xmlns="http://www.w3.org/2000/svg" version="1.1" viewBox="0 0 400 89.4">
  <!-- Generator: Adobe Illustrator 29.1.0, SVG Export Plug-In . SVG Version: 2.1.0 Build 142)  -->
  <rect x="262.3" y="3.4" width="4.4" height="65.1"/>
  <rect x="277.3" y="22.7" width="4.4" height="45.8"/>
  <path d="M279.5,4.4c-2,0-3.6,1.7-3.6,3.6s1.6,3.5,3.6,3.5,3.6-1.6,3.6-3.6-1.6-3.5-3.6-3.5Z"/>
  <path d="M314.7,22.3c-8.7,0-15.1,3.9-18.2,10.3v-9.9h-4.2v45.8h4.4v-24.4c0-10.9,6.6-17.8,17.4-17.8s14.8,5.4,14.8,15.8v26.4h4.4v-26.8c0-12.8-7.5-19.4-18.6-19.4Z"/>
  <polygon points="381.8 22.7 376.2 22.7 346.9 49.4 346.9 3.4 342.5 3.4 342.5 68.4 346.9 68.4 346.9 54.8 358.8 44 378.3 68.4 383.8 68.4 362.1 41.2 381.8 22.7"/>
  <path d="M393.8,63c-1.6,0-2.9,1.2-2.9,2.9s1.3,2.9,2.9,2.9,2.9-1.3,2.9-2.9-1.3-2.9-2.9-2.9Z"/>
  <path d="M16,24c0-4.6,3.9-8.3,13.3-8.3s11.4,1.6,16.9,4.8l3.6-8.9c-5.3-3.5-13.1-5.4-20.4-5.4C12.6,6.2,4.7,14.6,4.7,24.5c0,22.8,36.5,14.1,36.5,27.4s-4,8-13.6,8-15.3-2.8-20.3-6.8l-3.9,8.9c5.1,4.4,14.6,7.4,24.2,7.4,16.8,0,24.8-8.4,24.8-18.2,0-22.5-36.4-14-36.4-27.1Z"/>
  <path d="M84,60c-4.2,0-6.5-2.5-6.5-7v-22.3h12.5v-8.8h-12.5v-10.7h-11v10.7h-7.7v8.8h7.7v22.5c0,10.3,5.9,15.8,16.1,15.8s7.9-1.1,10.5-3.2l-3.1-7.8c-1.7,1.3-3.9,1.9-6.1,1.9Z"/>
  <path d="M159.6,44.3c0-.2,0-.5,0-.7,0-2.4.6-4.6,1.6-6.4,2.3-4.2,6.9-6.8,12.7-6.8s12.7,2.5,13.9,8.8h11.1v-17.5h-10.4v6.2c-3.9-4.6-9.6-6.8-16.2-6.8-11.2,0-20.2,6.2-22.8,16.1h-7.3c-.8-11.9-8.5-16.1-21.2-16.1s-14.8,1.9-19.8,5.8l4.3,8c3.5-2.9,8.9-4.6,14.2-4.6s11.3,1,11.6,6.8h-12.1c-14.2,0-19.5,10.2-19.5,18s6.8,14,17.5,14,12.1-2.3,14.7-6.3v5.7h10.3v-24.1h17.5ZM131.1,53.8c-1.8,4.8-6.5,7.3-11.8,7.3s-8.9-2.5-8.9-6.5,2-10.3,9.5-10.3h11.3v9.5Z"/>
  <path d="M229.4,20.4c-11.9,0-21.2,7.3-23.6,18.1-.3,1.4-.5,2.9-.6,4.4h-17.2c0,.2,0,.4,0,.6,0,2.5-.6,4.8-1.6,6.7-2.3,4.2-6.9,6.8-12.6,6.8s-12.6-2.4-14-8.7h-11.2c1.4,11.9,11.1,18,23.5,18s11.8-2,15.7-6.2v2.5c0,9.5-4.6,14.2-14.9,14.2s-13.2-2.2-17.3-5.6l-4.9,8.2c5.3,4.4,14,6.7,22.8,6.7,16.4,0,25.3-7.7,25.3-24.7v-11.1h7.1c2.5,10.8,11.8,18.1,25.2,18.1s14.6-2.6,18.9-7.6l-5.9-6.8c-3.3,3.4-7.5,5.1-12.7,5.1s-12.4-3.4-14.5-8.8h36c0-1.1.2-4.8.2-5.7,0-14.6-10-24.2-23.7-24.2ZM220.7,43h0s-4.6,0-4.6,0c0,0,0-2.5,0-2.5.1-.7.3-1.3.4-2,1.7-5.7,6.5-9.4,12.9-9.4s12.3,4.6,13.2,11.4c0,0,0,2.5,0,2.5h-22Z"/>
</svg>